<svg width="512" height="512" viewBox="0 0 512 512" fill="none" xmlns="http://www.w3.org/2000/svg">
  <defs>
    <linearGradient id="umbrellaGrad" x1="0" y1="0" x2="512" y2="512" gradientUnits="userSpaceOnUse">
      <stop offset="0%" stop-color="#00C6FB"/>
      <stop offset="100%" stop-color="#005BEA"/>
    </linearGradient>

    <mask id="iconCutout" maskUnits="userSpaceOnUse" x="0" y="0" width="512" height="512">
      <rect width="512" height="512" rx="100" fill="white"/>
      <g fill="black">
        <path fill-rule="evenodd" clip-rule="evenodd" d="M256 120C183.107 120 124 179.107 124 252H164C164 201.189 205.189 160 256 160C306.811 160 348 201.189 348 252H388C388 179.107 328.893 120 256 120Z"/>
        <path d="M174 272L202 360H310L338 272H174Z"/>
        <rect x="215" y="300" width="82" height="12" rx="6"/>
        <rect x="215" y="324" width="50" height="12" rx="6"/>
      </g>
    </mask>
  </defs>

  <rect width="512" height="512" rx="100" fill="url(#umbrellaGrad)" mask="url(#iconCutout)"/>
</svg>
